<svg xmlns="http://www.w3.org/2000/svg" width="900" height="900" viewBox="0 0 300 300"><defs><linearGradient id="leg" x1="0" y1="0" x2="0" y2="1"><stop offset="0" stop-color="#0A6FE0"/><stop offset="1" stop-color="#0046A8"/></linearGradient><linearGradient id="boot" x1="0" y1="0" x2="0" y2="1"><stop offset="0" stop-color="#FFE27A"/><stop offset="1" stop-color="#FFC21F"/></linearGradient><linearGradient id="sole" x1="0" y1="0" x2="0" y2="1"><stop offset="0" stop-color="#E59A08"/><stop offset="1" stop-color="#B87400"/></linearGradient></defs>
    <path fill="url(#leg)" d="M104 221h27v31h-27zM155 220h27v32h-27z"/>
    <path fill="url(#sole)" d="M106 246q-24 7-27 23q0 13 28 12q28 0 30-12l-7-23zM157 246q-8 19 2 30q14 9 40 2q14-6-1-23l-16-10z"/>
    <path fill="url(#boot)" d="M106 242q-23 6-27 22q-1 11 26 10q28 0 29-12l-5-21zM157 242q-8 16 2 26q15 9 39 1q9-6-3-17l-14-12z"/>
    <path d="M104 244h28M156 243h26" stroke="#E59A08" stroke-width="3" stroke-linecap="round"/>
    <g fill="#B87400" opacity=".6"><circle cx="112" cy="252" r="1.6"/><circle cx="120" cy="251" r="1.6"/><circle cx="166" cy="251" r="1.6"/><circle cx="174" cy="252" r="1.6"/></g>
    <ellipse cx="99" cy="255" rx="12" ry="5" transform="rotate(-30 99 255)" fill="#FFE27A"/><ellipse cx="180" cy="253" rx="12" ry="5" transform="rotate(25 180 253)" fill="#FFE27A"/>
    <ellipse cx="96" cy="253" rx="4" ry="2" transform="rotate(-30 96 253)" fill="#FFFFFF" opacity=".85"/><ellipse cx="183" cy="251" rx="4" ry="2" transform="rotate(25 183 251)" fill="#FFFFFF" opacity=".85"/></svg>